# xmcd
#
# Track frame offsets:
#	150
#	14218
#	27584
#	38650
#	51889
#	65482
#	76481
#	88317
#	102231
#	114033
#	126763
#	139130
#	152499
#	164974
#	177111
#	188616
#	200722
#	213164
#	224075
#	236383
#	247649
#	259723
#	271994
#	282334
#	295808
#	308022
#
# Disc length: 4261 seconds
# Revision: 0
# Processed by: cddbd v1.5.2PL0 Copyright (c) Steve Scherf et al.
# Submitted via: dBpowerAMP V12.0
#
DISCID=7d10a31a
DTITLE=Bill Samuels - 1945-1947
DYEAR=2004
DGENRE=Blues
TTITLE0=I Cover the Waterfront
TTITLE1=Jockey Blues
TTITLE2=I'm Coming Home to Stay
TTITLE3=My Bicycle Tillie
TTITLE4=One Hundred Years from Today
TTITLE5=Candy Store Jump
TTITLE6=That Chick's Too Young to Fry
TTITLE7=I Cover the Waterfront
TTITLE8=Jockey Blues
TTITLE9=Port Wine
TTITLE10=Ghost of a Chance
TTITLE11=I'm Falling for You
TTITLE12=I Surrender, Dear
TTITLE13=Open the Door, Richard
TTITLE14=For You
TTITLE15=My Baby Didn't Even Say Goodbye
TTITLE16=Lilacs in the Rain
TTITLE17=I Know What You're Puttin' Down
TTITLE18=When I Closed My Eyes
TTITLE19=Where's My Baby
TTITLE20=If I Had Another Chance
TTITLE21=One for the Money
TTITLE22=It's Love Time
TTITLE23=That Someone Is You
TTITLE24=Stompin' These Blues Away
TTITLE25=Moonglow
EXTD=
EXTT0=
EXTT1=
EXTT2=
EXTT3=
EXTT4=
EXTT5=
EXTT6=
EXTT7=
EXTT8=
EXTT9=
EXTT10=
EXTT11=
EXTT12=
EXTT13=
EXTT14=
EXTT15=
EXTT16=
EXTT17=
EXTT18=
EXTT19=
EXTT20=
EXTT21=
EXTT22=
EXTT23=
EXTT24=
EXTT25=
PLAYORDER=
